TITLE ""
FILE "Disc2Track15.mp3" MP3
  TRACK 01 AUDIO
    TITLE "Disc2Track15_01"
    INDEX 01 00:00:00
  TRACK 02 AUDIO
    TITLE "Disc2Track15_02"
    INDEX 01 00:00:69
  TRACK 03 AUDIO
    TITLE "Disc2Track15_03"
    INDEX 01 00:01:63
  TRACK 04 AUDIO
    TITLE "Disc2Track15_04"
    INDEX 01 00:02:68
  TRACK 05 AUDIO
    TITLE "Disc2Track15_05"
    INDEX 01 00:04:73
  TRACK 06 AUDIO
    TITLE "Disc2Track15_06"
    INDEX 01 00:05:29
  TRACK 07 AUDIO
    TITLE "Disc2Track15_07"
    INDEX 01 00:06:38
  TRACK 08 AUDIO
    TITLE "Disc2Track15_08"
    INDEX 01 00:09:05
  TRACK 09 AUDIO
    TITLE "Disc2Track15_09"
    INDEX 01 00:10:13
  TRACK 10 AUDIO
    TITLE "Disc2Track15_10"
    INDEX 01 00:13:74
  TRACK 11 AUDIO
    TITLE "Disc2Track15_11"
    INDEX 01 00:14:30
  TRACK 12 AUDIO
    TITLE "Disc2Track15_12"
    INDEX 01 00:15:49
  TRACK 13 AUDIO
    TITLE "Disc2Track15_13"
    INDEX 01 00:17:38
  TRACK 14 AUDIO
    TITLE "Disc2Track15_14"
    INDEX 01 00:18:55
  TRACK 15 AUDIO
    TITLE "Disc2Track15_15"
    INDEX 01 00:22:47
  TRACK 16 AUDIO
    TITLE "Disc2Track15_16"
    INDEX 01 00:23:05
  TRACK 17 AUDIO
    TITLE "Disc2Track15_17"
    INDEX 01 00:24:30
  TRACK 18 AUDIO
    TITLE "Disc2Track15_18"
    INDEX 01 00:26:06
  TRACK 19 AUDIO
    TITLE "Disc2Track15_19"
    INDEX 01 00:27:27
  TRACK 20 AUDIO
    TITLE "Disc2Track15_20"
    INDEX 01 00:32:14
  TRACK 21 AUDIO
    TITLE "Disc2Track15_21"
    INDEX 01 00:32:46
  TRACK 22 AUDIO
    TITLE "Disc2Track15_22"
    INDEX 01 00:33:61
  TRACK 23 AUDIO
    TITLE "Disc2Track15_23"
    INDEX 01 00:36:26
  TRACK 24 AUDIO
    TITLE "Disc2Track15_24"
    INDEX 01 00:37:41
  TRACK 25 AUDIO
    TITLE "Disc2Track15_25"
    INDEX 01 00:42:28
  TRACK 26 AUDIO
    TITLE "Disc2Track15_26"
    INDEX 01 00:42:60
  TRACK 27 AUDIO
    TITLE "Disc2Track15_27"
    INDEX 01 00:44:04
  TRACK 28 AUDIO
    TITLE "Disc2Track15_28"
    INDEX 01 00:45:66
  TRACK 29 AUDIO
    TITLE "Disc2Track15_29"
    INDEX 01 00:47:10
  TRACK 30 AUDIO
    TITLE "Disc2Track15_30"
    INDEX 01 00:50:55
  TRACK 31 AUDIO
    TITLE "Disc2Track15_31"
    INDEX 01 00:51:12
  TRACK 32 AUDIO
    TITLE "Disc2Track15_32"
    INDEX 01 00:52:31
  TRACK 33 AUDIO
    TITLE "Disc2Track15_33"
    INDEX 01 00:54:12
  TRACK 34 AUDIO
    TITLE "Disc2Track15_34"
    INDEX 01 00:55:27
  TRACK 35 AUDIO
    TITLE "Disc2Track15_35"
    INDEX 01 00:58:00
  TRACK 36 AUDIO
    TITLE "Disc2Track15_36"
    INDEX 01 00:58:33
  TRACK 37 AUDIO
    TITLE "Disc2Track15_37"
    INDEX 01 00:59:52
  TRACK 38 AUDIO
    TITLE "Disc2Track15_38"
    INDEX 01 01:02:09
  TRACK 39 AUDIO
    TITLE "Disc2Track15_39"
    INDEX 01 01:03:27
  TRACK 40 AUDIO
    TITLE "Disc2Track15_40"
    INDEX 01 01:05:61
  TRACK 41 AUDIO
    TITLE "Disc2Track15_41"
    INDEX 01 01:06:17
  TRACK 42 AUDIO
    TITLE "Disc2Track15_42"
    INDEX 01 01:07:36
  TRACK 43 AUDIO
    TITLE "Disc2Track15_43"
    INDEX 01 01:09:53
  TRACK 44 AUDIO
    TITLE "Disc2Track15_44"
    INDEX 01 01:10:72
